<?xml version="1.0" standalone="no"?>
<!DOCTYPE svg PUBLIC "-//W3C//DTD SVG 20010904//EN"
 "http://www.w3.org/TR/2001/REC-SVG-20010904/DTD/svg10.dtd">
<svg version="1.0" xmlns="http://www.w3.org/2000/svg"
 width="142.000000pt" height="142.000000pt" viewBox="0 0 142.000000 142.000000"
 preserveAspectRatio="xMidYMid meet">
<metadata>
Created by potrace 1.15, written by Peter Selinger 2001-2017
</metadata>
<g transform="translate(0.000000,142.000000) scale(0.100000,-0.100000)"
fill="#000000" stroke="none">
<path d="M3 1044 c-6 -16 36 -105 79 -167 l20 -27 426 2 c381 3 427 5 430 19
1 9 -19 54 -46 100 l-48 84 -427 3 c-389 2 -428 1 -434 -14z"/>
<path d="M1109 930 l-74 -129 -187 -1 c-175 0 -188 -1 -198 -19 -12 -23 -14
-380 -2 -399 6 -9 35 -12 108 -10 l99 3 3 123 c1 67 6 122 10 122 4 0 39 -51
78 -113 50 -80 76 -112 90 -112 14 0 35 31 86 125 37 68 71 126 77 128 7 2 11
-45 13 -135 l3 -138 103 -3 102 -3 0 346 0 345 -118 0 -118 0 -75 -130z"/>
<path d="M361 786 c-8 -9 -11 -74 -9 -212 l3 -199 105 0 105 0 3 204 c2 157
-1 206 -10 213 -23 14 -184 10 -197 -6z"/>
</g>
</svg>
