<?xml version="1.0" encoding="UTF-8"?>
<svg enable-background="new 0 0 200 31.4" version="1.1" viewBox="0 0 200 31.4" xml:space="preserve" xmlns="http://www.w3.org/2000/svg">
<style type="text/css">
	.st0{fill:#FFFFFF;}
	.st1{fill:#D71112;}
</style>
<path class="st0" d="m84.5 11.9c-0.8 3.9-1.6 7.8-2.5 11.7h2.6 8.5c0.4 0 0.6-0.1 0.7-0.5 0.2-1.1 0.4-2.2 0.7-3.4h-2.9-4.4c-0.4 0-0.4-0.1-0.4-0.5l1.5-6.9c0-0.3 0.1-0.4 0.5-0.4 3.2 0.1 6.4-0.1 9.6 0.1 0.7 0.1 1.4 0.2 2.1 0.5 1.4 0.5 2.3 1.9 2.3 3.3 0 1.7-0.3 3.5-0.8 5.1-0.3 1.7-0.7 3.5-1.2 5.1-0.7 2.6-2.9 4.6-5.7 4.9-1 0.2-2 0.3-3 0.3h-12c-1.2 0-2.5-0.1-3.6-0.5-1.8-0.4-2.9-2.1-2.8-3.9 0.1-1.7 0.4-3.4 0.9-5 0.6-3.2 1.3-6.4 2-9.5 0-0.2 0-0.5 0.4-0.5l7.5 0.1z"/>
<path class="st1" d="m150 31.1h-6.5c-1.4 0-2.9-0.3-4.2-0.9-1.1-0.6-1.8-1.7-1.9-3 0-1.4 0.1-2.8 0.5-4.2 0.5-2.4 1-4.8 1.5-7.1 0.3-1.3 0.5-2.6 0.8-3.8 0-0.2 0.3-0.4 0.5-0.4h7c0.2 0 0.4-0.1 0.3 0.3-0.8 3.6-1.5 7.3-2.3 11-0.1 0.4 0.1 0.4 0.3 0.4h10.9c0.4 0 0.5-0.3 0.5-0.5 0.2-1 0.4-2.1 0.6-3.1 0.1-0.4-0.2-0.3-0.4-0.3h-6.7c-0.4 0-0.6 0.1-0.5-0.6 0.5-2.3 1-4.6 1.4-7 0.1-0.3 0.2-0.3 0.4-0.3 2.9 0 5.9-0.1 8.8 0 1.2 0 2.4 0.3 3.5 0.9s1.8 1.7 1.8 3c0 1.4-0.1 2.8-0.5 4.2-0.5 2-0.8 4-1.4 5.9-0.6 2.5-2.6 4.5-5.2 5-1.6 0.3-3.2 0.5-4.8 0.4-1.3 0.1-2.9 0.1-4.4 0.1z"/>
<path class="st1" d="m179.3 11.7c-0.5 2.3-0.9 4.5-1.4 6.7-0.3 1.5-0.6 3-1 4.6-0.1 0.4-0.1 0.5 0.3 0.5h10.9c0.4 0 0.5-0.3 0.5-0.5 0.2-1 0.4-2.1 0.6-3.1 0.1-0.4-0.2-0.3-0.4-0.3h-6.8c-0.4 0-0.6 0.1-0.5-0.5 0.5-2.3 1-4.6 1.4-7 0.1-0.3 0.2-0.3 0.4-0.3 2.9 0 5.9-0.1 8.8 0 1.2 0 2.4 0.3 3.5 0.9s1.8 1.7 1.9 3c0 1.4-0.1 2.8-0.6 4.2-0.5 2-0.8 4-1.4 5.9-0.6 2.5-2.6 4.5-5.2 5-1.2 0.3-2.3 0.4-3.5 0.4h-12.1c-1.5 0.1-3-0.2-4.4-0.9-1.1-0.6-1.9-1.7-1.9-3 0-1.4 0.2-2.9 0.6-4.3 0.5-2.4 1-4.8 1.5-7.1 0.3-1.3 0.5-2.6 0.8-3.8 0-0.2 0.2-0.4 0.4-0.4h7.6z"/>
<path class="st0" d="m20.7 19.7h-12c-0.8 0-1.7-0.1-2.5-0.2-2.8-0.5-4-2.2-3.7-5 0.1-0.7 0.3-1.4 0.4-2.1 0-0.3 0.2-0.4 0.5-0.4h19.9c0.7 0 1.5 0.1 2.2 0.3 2.7 0.6 3.9 2.2 3.5 5-0.5 3.1-1.1 6.1-2 9.1-0.9 3.2-3.3 4.6-6.5 5-1.5 0.1-3 0.2-4.5 0.1h-10c-1.2 0-2.4-0.2-3.5-0.5-1.6-0.5-2.7-2-2.6-3.7 0-1.1 0.2-2.2 0.4-3.3 0.1-0.4 0.4-0.3 0.6-0.3h14 4.3c0.4 0 0.6-0.1 0.6-0.5 0.4-1.2 0.7-2.3 0.9-3.5z"/>
<path class="st0" d="m65.1 11.9c-0.5 2.5-1 4.9-1.5 7.4-0.1 0.5-0.4 0.4-0.7 0.4h-10.5c-0.5 0-0.7 0.1-0.7 0.6-0.2 0.9-0.3 1.9-0.6 2.8-0.1 0.5 0 0.5 0.4 0.5h18.9l-1.3 6.3c-0.1 0.4-0.1 1.1-0.4 1.4s-1 0.1-1.5 0.1h-25.6c1-4.6 2-9.2 2.9-13.8 0.4-1.7 0.7-3.5 1.1-5.2 0.1-0.3 0.2-0.5 0.6-0.5h18.7 0.2z"/>
<path class="st0" d="m103.7 31.3c0.8-3.8 1.6-7.5 2.4-11.3 0.5-2.5 1.1-5.1 1.6-7.6 0.1-0.3 0.2-0.5 0.6-0.5h18.6 0.3c-0.5 2.5-1 4.9-1.5 7.4-0.1 0.4-0.4 0.4-0.7 0.4h-10.5c-0.5 0-0.7 0.1-0.8 0.6-0.2 0.9-0.3 1.8-0.6 2.7-0.1 0.5 0 0.6 0.5 0.6h11.7 7.1c-0.4 1.9-0.8 3.8-1.2 5.6v0.1c-0.2 0.7 0 1.6-0.5 1.9s-1.3 0.1-2 0.1h-25z"/>
<path class="st0" d="m46.5 8l1.6-7.4c0-0.2 0.2-0.4 0.4-0.3h0.3 25.9c0.6 0 0.6 0.1 0.5 0.7-0.5 2.2-1 4.4-1.4 6.7-0.1 0.3-0.1 0.4-0.5 0.4l-26.6-0.1h-0.2z"/>
<path class="st0" d="m137.5 0.3c-0.5 2.5-1.1 4.9-1.6 7.4-0.1 0.3-0.2 0.4-0.5 0.4h-1.9-24.9c0.5-2.5 1.1-5 1.6-7.4 0.1-0.5 0.4-0.3 0.7-0.3h18l8.6-0.1z"/>
<path class="st0" d="m77.5 8c0.2-0.9 0.4-1.7 0.6-2.4 0.6-2.7 2.9-4.7 5.7-5 1-0.2 2-0.3 3-0.3h11.9c0.9 0 1.8 0.1 2.7 0.2 3.1 0.6 4.2 2.3 3.7 5.4-0.1 0.5-0.3 1-0.3 1.6s-0.2 0.5-0.7 0.5h-26.6z"/>
<path class="st1" d="m141.3 7.8c0.2-1.2 0.5-2.3 0.9-3.4 0.8-2.1 2.6-3.6 4.8-4 1.2-0.3 2.3-0.4 3.5-0.4h12.4c1.5-0.1 2.9 0.2 4.2 0.9 1.1 0.6 1.8 1.7 1.9 3 0 1.2-0.1 2.4-0.4 3.6 0 0.2-0.2 0.3-0.3 0.3h-27z"/>
<path class="st1" d="m172.3 7.8c0.2-1.6 0.7-3.2 1.6-4.6s2.4-2.4 4.1-2.8c1.2-0.3 2.3-0.4 3.5-0.4h12.4c1.5-0.1 2.9 0.2 4.2 0.9 1.1 0.6 1.9 1.7 1.9 2.9s-0.1 2.5-0.4 3.7c0 0.2-0.2 0.3-0.3 0.3h-27z"/>
<path class="st0" d="m3.8 8c0.6-4.6 4.6-7.9 9.2-7.7h12c0.9 0 1.9 0.1 2.8 0.2 3 0.5 4.1 2.2 3.7 5.2-0.1 0.5-0.3 1.1-0.3 1.6 0 0.7-0.4 0.7-1 0.7h-11.1-15.3z"/>
<path class="st0" d="m29.9 31.3c1.4-6.4 2.7-12.7 4-19 0.1-0.3 0.1-0.4 0.4-0.4h7.4c-0.5 2.1-0.9 4.2-1.3 6.3-0.9 4.2-1.8 8.3-2.6 12.5-0.1 0.5-0.3 0.6-0.7 0.6h-7.2z"/>
<path class="st0" d="m34.9 8c0.5-2.5 1-4.9 1.5-7.3 0.1-0.3 0.1-0.4 0.5-0.4h7.2 0.2c-0.5 2.4-1 4.9-1.5 7.3 0 0.2-0.1 0.4-0.4 0.4h-7.5z"/>
</svg>
