<?xml version="1.0" encoding="utf-8"?>
<!-- Generator: Adobe Illustrator 22.1.0, SVG Export Plug-In . SVG Version: 6.00 Build 0)  -->
<svg version="1.1" id="Layer_1" xmlns="http://www.w3.org/2000/svg" xmlns:xlink="http://www.w3.org/1999/xlink" x="0px" y="0px"
	 viewBox="0 0 512 512" style="enable-background:new 0 0 512 512;" xml:space="preserve">
<style type="text/css">
	.st0{fill:#FFFFFF;stroke:#000000;stroke-width:1.077;stroke-miterlimit:10;}
	.st1{stroke:#FF0000;stroke-width:1.077;stroke-miterlimit:10;}
	.st2{fill:#B24B1D;}
	.st3{stroke:#000000;stroke-width:1.077;stroke-miterlimit:10;}
	.st4{fill:#FFFFFF;}
</style>
<g>
	<rect x="36.4" y="35.9" class="st0" width="441.6" height="441.6"/>
	<rect x="54.7" y="54.2" class="st1" width="403.9" height="403.9"/>
	<rect x="72.4" y="73.1" class="st2" width="368.3" height="367.3"/>
	<polygon class="st3" points="198.6,225.3 171.7,54.1 256.2,207.9 	"/>
	<polygon class="st3" points="310.4,250.9 458.6,377 284.8,323.7 	"/>
	<polygon class="st3" points="344.8,519.9 287.8,265.2 224.1,315.9 	"/>
	<polygon class="st4" points="183,86.9 209,222.2 244.2,211.5 	"/>
	<polygon class="st2" points="224.1,203.9 207.6,215.3 185.8,101.7 	"/>
	<polygon class="st4" points="407.9,351 371.7,321.7 380.4,316.7 355,310.2 304.6,267.2 287.9,314.7 400.2,348.7 	"/>
	<polygon class="st2" points="364.3,325.8 371.7,321.7 380.4,316.7 351.8,319.3 297.5,287.4 287.9,314.7 400.2,348.7 	"/>
	<polygon class="st4" points="327.9,473.4 275.6,274.9 238.1,304.8 312.8,445.1 	"/>
	<polygon class="st2" points="275.3,343.4 284.8,343.4 270.1,279.6 238.1,305 312.8,445.5 	"/>
	<polygon class="st3" points="226.5,211.4 100.1,165.5 75.9,111.3 72.9,154.5 -27.6,123.9 111,239.6 86.8,279.3 135.3,260.4 
		166.5,284.4 120.1,352.6 69,352.6 103.6,376.7 20,498.2 185.8,382.1 200.7,411.6 211.1,362.1 287.9,305 292.5,301.8 357.6,217.9 
		393.6,241.3 376.2,193.2 446.4,101.7 499.3,90.5 465.5,71.5 524,-12.6 384,90.1 344.1,71.5 359.8,109.2 	"/>
	<polygon class="st4" points="501.7,9.4 386.1,101.7 363.6,91.8 378.4,117.4 371.7,123.5 366.9,118.3 229.7,227.9 229.7,280 
		288.3,287.4 354.3,202.3 369.4,211.4 365.3,188.5 446.5,82.7 446,94.9 473.3,86.9 452.9,75.8 	"/>
	<polygon class="st2" points="359.8,196.7 365.3,188.5 446.4,82.7 446,94.9 452.9,75.8 484.6,32.6 233.8,280.7 287.7,287.4 
		354.1,202.3 369.3,211.4 	"/>
	<polygon class="st4" points="-0.4,139.9 68.1,164.9 68.1,176.5 76.8,176.5 82,150.4 92.7,175.7 221,225.4 226.5,280.1 183,279.3 
		134,242.9 134.6,249.3 113.1,256.9 124.9,234.3 	"/>
	<polygon class="st2" points="215,261.4 183,279.3 134,242.9 134.6,249.3 113.1,256.9 130.8,240.3 125.1,234.3 12.3,149.3 	"/>
	<polygon class="st4" points="227.5,281.5 184.4,290.3 131.7,361.7 103.7,361.7 123.3,379.3 119,384.3 113.2,384.3 53.8,462.9 
		181.4,368.8 175.9,356.6 183,352.8 197,380.8 201,352.7 276.7,296.4 	"/>
	<polygon class="st2" points="231.2,294.7 66,453.8 181.4,368.7 175.9,356.5 183,352.7 191.1,368.9 191.8,353 201,352.7 
		276.7,296.4 	"/>
	<polygon class="st2" points="123.3,379.4 126.9,373.8 111.9,369.4 	"/>
</g>
</svg>
