<?xml version="1.0" encoding="utf-8"?>
<!-- Generator: Adobe Illustrator 22.1.0, SVG Export Plug-In . SVG Version: 6.00 Build 0)  -->
<svg version="1.1" id="Layer_2_1_" xmlns="http://www.w3.org/2000/svg" xmlns:xlink="http://www.w3.org/1999/xlink" x="0px" y="0px"
	 viewBox="0 0 512 512" style="enable-background:new 0 0 512 512;" xml:space="preserve">
<style type="text/css">
	.st0{fill:#050505;}
	.st1{fill:#FDFDFD;}
	.st2{fill:#FCFCFC;}
	.st3{fill:#FBFBFB;}
	.st4{fill:#959733;}
	.st5{fill:#939540;}
	.st6{fill:#FEFEFE;}
	.st7{fill:#DEDDBE;}
	.st8{fill:#989A33;}
	.st9{fill:#999A33;}
	.st10{fill:#DDDCBE;}
	.st11{fill:#989932;}
	.st12{fill:#969832;}
	.st13{fill:#949631;}
	.st14{fill:#222222;}
	.st15{fill:#060606;}
	.st16{fill:#131309;}
</style>
<g>
	<path class="st0" d="M325.4,479.5c-0.1,0-0.2,0.1-0.3,0.1c-1.8,1.7-3.6,3.3-5.4,5.1c-3.7,3.6-7.6,7-11.7,10.2c-1.3,1-2.6,2.1-4,3.3
		c-0.7-1.4-1.6-2.7-2.1-4c-1.8-4.6-3.6-9.2-5.4-13.8c-0.1-0.3-0.2-0.6-0.3-0.8c0-0.1,0-0.2,0-0.3c-1.9-6.9-3.8-13.8-5.8-20.8
		c-0.1-0.3-0.2-0.5-0.3-0.7c-21.9,0-43.7,0-65.3,0c-2,7.1-4.1,14-6,21c-0.1,0.3,0,0.6,0,0.9c-0.6,1.6-1.3,3.1-1.9,4.7
		c-1.7,4.6-3.5,9.2-6,13.8c-1-0.8-2-1.5-2.9-2.3c-1.8-1.5-3.5-3-5.2-4.6c-4-3.8-8-7.6-12-11.4c-0.1-0.1-0.3-0.2-0.5-0.3
		c-0.3-0.4-0.6-0.8-0.9-1.2c-6-6.2-11.7-12.6-17.1-19.4c-0.8-1-1.6-1.4-2.9-1.4c-37.1,0-74.3,0-111.4,0c-0.6,0-1.3,0-1.9,0
		c0-134.5,0-268.8,0-403.3c0.7,0,1.3,0,1.9,0c31.5,0,63,0,94.5,0c0.9,0,1.6-0.1,2.3-0.7c7.4-6.5,15.4-12.1,24-17.1
		c2.3-1.3,4.7-2.7,7.1-4c1.2-0.5,2.4-1.1,3.7-1.6c4.3-1.9,8.6-3.9,13-5.6c8-3.2,16.2-5.5,24.5-7.5c3.5-0.8,7.1-1.3,10.6-2
		c3-0.5,6.1-1.1,9.2-1.5c1.8-0.2,3.6-0.3,5.4-0.3c2.5-0.1,5-0.4,7.5-0.3c3.1,0.1,6.3,0.5,9.4,0.8c1.8,0.2,3.7,0.3,5.5,0.6
		c3.5,0.6,7,1.1,10.5,1.9c4.4,1,8.9,2,13.2,3.3c4.6,1.3,9.2,2.9,13.7,4.5c6,2.1,11.7,4.8,17.4,7.6c0.3,0.2,0.5,0.3,0.8,0.5
		c10.9,5.6,21,12.3,30.2,20.4c0.8,0.7,1.5,0.9,2.6,0.9c31.5,0,63.1,0,94.6,0c0.6,0,1.2,0,1.9,0c0,35.6,0,70.9,0,106.3
		c2.7-0.3,5.3-0.8,7.9-1c4.6-0.4,9,0.1,13.4,1.7c0.1,0,0.3,0.1,0.4,0.1l0,0c1.1,0.5,2.1,1.2,3.2,1.6c1.9,0.5,3.3,1.9,4.9,3
		c1.3,0.9,2.9,1.3,4.4,1.9c3,1,5.8,2.6,8,4.9c2.2,2.2,3.7,4.9,4.8,7.9c1.2,3.4,1.9,6.9,2.5,10.5c0.4,2.9,1,5.7,1.4,8.5
		c0.3,2.4,0.5,4.8,0.6,7.2c0.2,3.2,0.4,6.3,0.3,9.5c-0.1,3.7-0.4,7.5-1.1,11.2c-0.5,3-1.2,6-2.2,8.8c-1.1,3.2-2.7,6.2-5,8.7
		c-1.8,1.9-3.9,3.5-6.5,4.1c-0.1,0-0.2,0.2-0.3,0.3c-0.1,0.1-0.2,0.2-0.3,0.3c0,0,0,0,0,0c-0.3,0-0.5,0-0.8,0
		c-4.7,1.2-9.3,0.7-13.8-0.6c-3.2-0.9-6.2-2.4-9.1-4c-4.5-2.5-9.2-2.7-14-1.7c-1.3,0.3-2.7,0.6-3.7,1.7c1.7-0.1,3.3-0.2,4.9-0.2
		c0,10.8,0,21.6,0,32.3c-0.3-0.2-0.6-0.3-0.8-0.6c-0.8-0.9-1.6-1.8-2.4-2.7c-0.1,0-0.1-0.1-0.2-0.1c0.1,0,0.2,0.1,0.2,0.1
		c0.1,0.3,0.1,0.6,0.2,0.9c3.2,7,7.3,13.5,12.5,19.3c3.3,3.6,7.2,6.5,10.9,9.6c0.2,0.2,0.6,0.2,0.9,0.3l0,0c0.2,0.3,0.4,0.6,0.6,0.9
		l0,0c0.1,0.1,0.2,0.2,0.3,0.2c2.1,2,4.3,3.9,6.3,6c4,4.2,7.2,8.9,9.2,14.5c1.1,3.2,2.1,6.5,2.3,9.9c0.2,2.4,0.6,4.8,0.2,7.3
		c-0.4,1.9-0.3,3.9-0.6,5.8c-0.6,4.3-1.8,8.5-3.3,12.6c-1.5,4.1-3.3,8.1-5.6,11.8c-2.6,4.2-5.2,8.4-7.8,12.7c-0.3,0.5-0.6,1.1-1,1.7
		c-1.1,1.4-2.3,2.8-3.4,4.2c-5,6.4-10.6,12.2-17.3,16.8c-1,0.7-1.3,1.4-1.3,2.6c0,14.9,0,29.9,0,44.8c0,0.6,0,1.2,0,1.9
		c-0.8,0-1.4,0-2,0c-37.1,0-74.3,0-111.4,0c-1.1,0-1.8,0.3-2.5,1.2c-5.3,6.9-11,13.4-17,19.7C325.9,478.8,325.7,479.2,325.4,479.5z
		 M92.5,376.3C92.5,376.3,92.5,376.3,92.5,376.3c-0.1,0.3-0.2,0.6-0.3,0.8c-4.3,5.5-8.6,10.9-13,16.3c-1.1,1.3-1.7,2.6-1.5,4.4
		c0.1,1.2,0,2.5,0,3.8c0,3.4,0,6.9,0,10.5c16.7-8.5,33.2-17,49.7-25.4c-4.5-10.7-9-21.3-13.5-32.1c-12,4.9-24.1,9.9-36.1,14.8
		c0,5.2,0,10.3,0,15.5c2.6-1.5,5-3,7.4-4.4C87.6,379.1,90,377.7,92.5,376.3z M412.6,115.9C412.6,115.9,412.6,115.9,412.6,115.9
		c0.3-0.3,0.6-0.7,0.9-0.9c7.6-5.9,15.2-11.9,22.8-17.8c0.7-0.5,0.9-1.1,0.9-1.9c0-6,0-11.9,0-17.9c0-0.4-0.1-0.8-0.1-1.1
		c-18.5,0-36.9,0-55.5,0c14.6,19.5,23.8,41.3,29.3,64.6c8.9,0,17.6,0,26.3,0c0-13.8,0-27.5,0-41.3c-0.5,0.3-0.8,0.5-1.1,0.8
		c-6.2,4.7-12.4,9.3-18.6,14C415.9,115.5,414.4,115.9,412.6,115.9z M132.7,310.8c0.1,0.1,0.1,0.1,0.2,0.2c-1.8,2.7-3.5,5.4-5.3,8.1
		c-0.6,1-1.3,1.9-2,3c4.9,3,9.6,5.9,14.7,9c-0.2-2.3-0.3-4.2-0.4-6.1c-0.2-3.9-0.5-7.7-0.7-11.6c0-0.6-0.2-1-0.8-1.3
		c-5.2-2.9-9.6-6.8-13.7-11.1c-5.2-5.5-9.4-11.7-13-18.3c-6-11.1-9.8-23-12.2-35.4c-0.3-1.5-0.6-2.9-0.9-4.4
		c-7,0.5-13.9,0.9-20.8,1.4c0,39.7,0,79.2,0,118.8c0.4-0.2,0.6-0.2,0.8-0.4c8.9-4.2,17.7-8.4,26.6-12.6c2-0.9,3.9-2.4,6.5-2
		c-4.9-13.9-9.2-27.7-12.4-42.2c7.3,4.5,14.4,8.8,21.5,13.2c1.8-1.3,3.6-2.6,5.5-3.8C128.4,313.7,130.5,312.3,132.7,310.8z
		 M355.1,414.2c5.5,0.3,10.9,0.7,16.6,1c-3.7,7-7.9,13.6-12,20.4c26,0,51.7,0,77.4,0c0-6,0-11.8,0-17.8c-0.3,0-0.5,0-0.7,0
		c-2.2,0.3-4.5,0.7-6.7,0.8c-6.1,0.3-12.1,0.2-18.1-0.6c-7.6-1-15.2-2.6-22.6-4.4c-12.4-3-24.6-6.4-37.2-8.5
		c-5.6-0.9-11.3-1.5-17-1.6c-5.2-0.1-10.2,0.5-15.3,1.2c-3.2,0.4-6.4,0.8-9.6,1.1c-2.4,0.2-4.8,0.4-7.6,0.6c0.7-0.5,1.1-0.8,1.5-1
		c10.9-6.4,21.9-12.7,33.3-18.2c5.2-2.6,10.5-5.1,16.1-6.8c2.2-0.7,4.5-1.2,6.7-1.6c2.2-0.4,4.1,0.6,6,1.7c6,3.4,11.9,6.9,17.9,10.3
		c2.8,1.6,5.7,3.1,8.8,4.1c3.9,1.2,7.6,0.7,10.8-1.8c1.3-1,2.4-2.1,3.6-3.3c2.3-2.4,4.4-5.1,6.9-7.4c5.1-4.7,9.7-9.8,14.4-14.9
		c5.5-6.1,10.8-12.4,16.2-18.6c2-2.3,4.2-4.5,5.7-7.2c1.9-3.4,3.2-7.2,4.3-10.9c0.4-1.3,0.6-2.7,0.6-4c0.1-1.4-0.2-1.7-1.6-2.2
		c-0.8-0.3-1.5-0.4-2.3-0.7c-2.5-0.8-4.5,0.5-5.2,2.7c-0.7,2.3-1.4,4.6-2.1,6.9c-0.5,1.7-1.1,3.4-2.4,5.1c-0.6-0.5-1.2-1-1.6-1.5
		c-1-1.1-1.9-2.3-3-3.4c-1.9-1.8-3.7-1.5-5.3,0.5c-1.6,2.1-2.1,4.5-1.8,7.1c0.2,2.1,0.7,4.2,1,6.3c0.6,3.4,0.2,6.5-1.5,9.6
		c-2.7,4.8-6.4,8.6-10.4,12.3c-2.7,2.5-5.5,4.9-8.3,7.2c-2.2,1.8-4.4,3.7-6.8,5.2c-3.4,2.2-7.2,3.6-11.3,3.9
		c-4.9,0.4-9.3-0.7-13.1-3.9c-2.4-1.9-4.9-3.6-7.4-5.2c-3.9-2.5-8.2-3.8-12.9-3.6c-4.7,0.2-9.3,1.4-13.6,3.1c-3.1,1.2-6.2,2.7-9.3,4
		c-0.4,0.2-0.8,0.1-1.2,0.1c0-0.4-0.1-0.8,0-1.1c0.6-1.5,1.1-3.1,1.8-4.5c2.6-4.5,5.2-9,7.9-13.4c2.7-4.4,5.5-8.7,9.1-12.4
		c3.4-3.7,7.3-6.6,12-8.4c2.9-1.1,5.4-1,7.8,1.2c1.5,1.3,3.1,2.6,4.7,3.8c2.4,1.9,4.9,3.7,7.8,4.9c4.8,1.9,9.6-2.4,9.5-6.2
		c-0.1-4.7-0.2-9.5-0.4-14.2c-0.1-3.9-0.3-7.7-0.4-11.6c-0.1-2.3,1-4.1,3-5.2c0.9-0.5,1.8-0.9,2.7-1.3c1.1-0.5,2.3-0.8,3.4-1.3
		c1.7-0.8,3.2-1.8,3.9-3.6c1.6-4.3,2.2-8.7,1.3-13.2c-0.9-4.9-3-9.4-5.7-13.6c-2.7-4.3-5.6-8.5-8.3-12.8c-2.7-4.3-5.1-8.8-6.5-13.7
		c-2.1-7.5-1.7-14.7,2.1-21.6c2-3.5,4.5-6.7,7.2-9.7c3.1-3.6,6.3-7.2,9.3-11c4.4-5.7,7.9-11.9,11.6-18c3.6-5.8,7.3-11.6,12-16.7
		c0.7-0.8,1.5-1.6,2.2-2.4c0.1-0.1,0.3-0.1,0.4-0.2c0-0.1-0.1-0.2-0.1-0.2c-0.1,0.1-0.2,0.1-0.3,0.2c-1.3,0.7-2.6,1.2-3.8,2
		c-4.1,2.8-7.7,6.3-11.1,10c-6.1,6.5-11.6,13.5-16.8,20.7c-1.9,2.6-3.7,5.2-5.6,7.8c-0.1-0.2-0.2-0.4-0.3-0.5
		c-0.1-3.2-0.2-6.4-0.4-9.6c-0.4-5.3-0.7-10.6-1.3-15.9c-0.8-6.5-1.9-13-2.9-19.5c-0.4-2.7-1.2-5.3-1.8-7.9c0-0.3,0-0.6-0.1-0.9
		c-3.7-15.9-9-31.2-16.6-45.7c-8.8-17-20.2-32-34.7-44.6c-13.8-12.1-29.3-21.2-46.7-27.1c-4.2-1.4-8.5-2.7-13.1-3.5
		c-0.6,2.7-1.3,5.4-1.8,8.1c-1.4,7.7-2.9,15.4-4.1,23.2c-1.1,7-2,14.1-2.8,21.1c-0.7,5.9-1.4,11.7-2,17.6c-0.4,4.1-0.7,8.1-1.1,12.2
		c0,0.1-0.1,0.3-0.1,0.4c-0.4,4.6-0.9,9.1-1.2,13.7c-0.5,5.7-0.9,11.5-1.3,17.2c-0.6,8-1.2,16.1-1.7,24.1
		c-0.4,6.7-0.8,13.5-1.2,20.2c-0.5,8.8-0.9,17.5-1.3,26.3c-0.3,7.5-0.6,15.1-0.9,22.6c-0.1,1.5-0.2,3.1-0.3,4.6c-0.1-1-0.1-2-0.2-3
		c-0.3-6.9-0.5-13.8-0.8-20.7c-0.5-10.4-1-20.7-1.5-31.1c-0.4-8-0.9-16-1.5-24c-0.4-6.5-0.8-13-1.3-19.5c-0.5-6.9-1.1-13.8-1.7-20.6
		c-0.7-7.9-1.4-15.9-2.2-23.8c-1.1-9.7-2.3-19.3-3.5-29c-1.4-10.9-3.3-21.8-5.5-32.6c-0.5-2.4-1.1-4.7-1.6-7c-0.2,0-0.3-0.1-0.4-0.1
		c-1.1,0.2-2.3,0.5-3.4,0.7c-14.8,3.7-28.4,10-41.1,18.4c-21.9,14.6-38.4,34-50.3,57.3c-6.8,13.3-11.7,27.3-15.2,41.9
		c-2.3,9.4-4,18.9-5.1,28.5c-0.7,6-1.3,12-1.6,18.1c-0.4,6.8-0.7,13.6-0.4,20.4c0.2,5.6,1.1,11.2,2,16.8
		c2.1,13.5,5.6,26.7,10.6,39.5c5.8,14.9,13.5,28.6,24.6,40.1c0.6,0.6,0.8,1.3,0.8,2.1c0,17,0,33.9,0,50.9c0,0.4,0,0.8,0,1.4
		c-7.4-6.1-14.7-12-22-17.9c0,0.3-0.1,0.4,0,0.5c0.2,0.9,0.5,1.9,0.7,2.8c4.4,15.6,10.6,30.3,18.1,44.7
		c12.7,24.4,28.7,46.6,47.7,66.5c0.2,0.2,0.5,0.4,0.9,0.6c0.6-3.9,1.4-7.7,1.9-11.5c1.5-11.3,3-22.7,4.3-34c1.1-9.5,2-19.1,2.6-28.6
		c0.8-10.7,1.3-21.4,1.7-32.1c0.3-8.5,0.3-17,0.5-25.6c0-1-0.2-1.7-0.7-2.5c-3.8-5.9-8.4-11.1-13.5-15.8c-10.7-10-23-17.2-36.7-22.1
		c-1.1-0.4-1.5-1-1.7-2c-3.5-14.4-6.9-28.9-10.4-43.3c-3.8-15.6-7.6-31.2-11.3-46.8c-0.1-0.4,0-0.9,0-1.4l0,0
		c0.4,0.2,0.8,0.5,1.1,0.7c9.6,7.5,19.2,15.1,28.8,22.6c0.7,0.6,1.5,1,2.4,1.2c4.2,0.8,8.5,1.7,12.7,2.5c12.3,2.5,24.6,5,36.8,7.5
		c2.7,0.5,5.4,1.1,8.1,1.7c0,17.7,0,35.2,0,52.7c0.4,0.2,0.6,0.3,0.9,0.4c5.1,2,10.2,4.1,15.3,6.1c3.8,1.5,7.6,3,11.3,4.5
		c0.4-0.1,0.9-0.2,1.3-0.4c7.8-3.1,15.6-6.2,23.4-9.4c1-0.4,1.9-0.8,3-1.2c0-17.6,0-35.1,0-52.6c0.2-0.1,0.3-0.2,0.4-0.2
		c9.6-2,19.2-3.9,28.9-5.8c9.5-1.9,19.1-3.8,28.6-5.8c0.7-0.1,1.4-0.5,2-0.9c9.7-7.6,19.4-15.2,29-22.8c0.4-0.3,0.7-0.6,1.3-1
		c-0.1,0.5-0.1,0.7-0.1,0.9c-2.6,10.9-5.3,21.8-7.9,32.7c-4.7,19.4-9.4,38.8-14.1,58.3c-0.2,0.9-0.5,1.3-1.4,1.7
		c-12.6,4.5-24,10.9-34.1,19.7c-6.2,5.4-11.7,11.4-16.2,18.2c-0.6,0.9-0.9,1.8-0.8,2.8c0.1,2.6,0.1,5.2,0.1,7.9
		c0.3,10.1,0.6,20.2,0.9,30.2c0.2,4.7,0.5,9.4,0.8,14c-0.4,0.3-0.8,0.7-1.2,0.9c-9.8,6.3-19.6,12.6-29.3,18.9
		c-1.7,1.1-3.3,2.2-5,3.3c0.6,0.2,1,0.2,1.5,0.1c4.5-0.6,9.1-1.2,13.6-1.7c3.4-0.4,6.8-0.7,10.2-1c3.9-0.3,7.8-0.5,11.7-0.8
		c1.8,20.1,4.2,40,7.6,59.9c0.2-0.1,0.3-0.1,0.3-0.1c0.8-0.9,1.7-1.8,2.5-2.6c14-14.8,26.2-31,36.8-48.4
		C352.4,419,353.7,416.6,355.1,414.2z M97.5,235.8c-0.4-5-1-9.9-1.2-14.8c-0.2-5-0.1-10-0.2-14.9c0-6.3,0.3-12.6,0.9-18.9
		c0.6-5.9,1.1-11.8,1.9-17.7c0.8-6.1,1.9-12.2,3-18.3c1.9-10.5,4.6-20.8,8.1-30.9c5.3-15.1,12.5-29.1,21.8-42.1
		c0.4-0.6,0.9-1.2,1.4-1.9c-18.6,0-37.1,0-55.6,0c0,54,0,107.9,0,161.9C84.4,237.3,91,236.6,97.5,235.8z M123.2,435.4
		c0,0.1,0,0.1,0.1,0.2c10.5,0,21,0,31.5,0c0-0.2,0-0.2,0-0.3c-1-1.6-2.1-3.2-3.1-4.8c-1.7-2.6-1.7-2.5-4.8-2.7
		c-2.5-0.1-4.9-0.3-7.4-0.5c-1.3-0.1-2.4,0-3.6,0.7c-2.2,1.4-4.6,2.7-6.9,4C127.1,433.1,125.1,434.3,123.2,435.4z M98.8,435.4
		c0,0.1,0,0.2,0.1,0.3c4.3,0,8.6,0,12.8,0c0.4,0,0.9-0.2,1.2-0.5c1.3-1.2,2.6-2.4,3.8-3.6c3.1-3,6.2-5.9,9.2-8.9
		c0.5-0.5,1-1,1.5-1.5c-0.1-0.1-0.2-0.2-0.2-0.2C117.7,425.7,108.3,430.6,98.8,435.4z M77.7,430.3c0,1.9,0,3.6,0,5.7
		c0.5-0.4,0.9-0.6,1.1-0.9c0.6-0.9,1.1-1.9,1.7-2.8c0.9-1.5,1.7-3,2.6-4.5c-0.1-0.1-0.1-0.1-0.2-0.2
		C81.2,428.4,79.4,429.4,77.7,430.3z"/>
	<path class="st1" d="M185.6,32.6c-2.4,1.3-4.7,2.6-7.1,4c-8.5,4.9-16.6,10.6-24,17.1c-0.7,0.6-1.5,0.7-2.3,0.7c-31.5,0-63,0-94.5,0
		c-0.6,0-1.2,0-1.9,0c0,134.4,0,268.8,0,403.3c0.7,0,1.3,0,1.9,0c37.1,0,74.3,0,111.4,0c1.3,0,2.1,0.4,2.9,1.4
		c5.4,6.7,11.1,13.2,17.1,19.4c0.3,0.4,0.6,0.8,0.9,1.2c-39,0-78,0-117,0c-12.5,0-24.9,0-37.4,0c-0.6,0-1.1,0-1.8,0
		c0-149,0-298,0-447c0.5,0,1-0.1,1.5-0.1c49.6,0,99.1,0,148.7,0C184.7,32.4,185.2,32.5,185.6,32.6z"/>
	<path class="st2" d="M480.4,161.4c-4.3-1.6-8.8-2.1-13.4-1.7c-2.6,0.2-5.2,0.6-7.9,1c0-35.4,0-70.8,0-106.3c-0.7,0-1.3,0-1.9,0
		c-31.5,0-63.1,0-94.6,0c-1,0-1.8-0.3-2.6-0.9c-9.2-8-19.4-14.8-30.2-20.4c-0.3-0.1-0.5-0.3-0.8-0.5c0.5,0,1-0.1,1.5-0.1
		c49.5,0,99,0,148.5,0c0.6,0,1.2,0,1.9,0c0,0.8,0,1.3,0,1.9c0,41.8,0,83.6,0,125.4c0,0.6-0.1,1.2-0.1,1.8l0,0
		C480.7,161.5,480.6,161.4,480.4,161.4z"/>
	<path class="st2" d="M325.4,479.5c0.2-0.4,0.4-0.8,0.7-1.1c6.1-6.2,11.7-12.8,17-19.7c0.7-0.9,1.4-1.2,2.5-1.2
		c37.1,0,74.3,0,111.4,0c0.6,0,1.2,0,2,0c0-0.7,0-1.3,0-1.9c0-14.9,0-29.9,0-44.8c0-1.2,0.3-1.9,1.3-2.6
		c6.7-4.6,12.2-10.5,17.3-16.8c1.1-1.4,2.2-2.8,3.4-4.2c0,11.1,0,22.3,0,33.4c0,19,0,37.9,0,56.9c0,0.6,0,1.1,0,1.9
		c-0.6,0-1.2,0-1.8,0c-19.8,0-39.6,0-59.5,0c-30.9,0-61.7,0-92.6,0C326.5,479.5,326,479.5,325.4,479.5z"/>
	<path class="st3" d="M218.8,479.6c0-0.3,0-0.6,0-0.9c2-7,4-13.9,6-21c21.6,0,43.4,0,65.3,0c0.1,0.2,0.2,0.5,0.3,0.7
		c1.9,6.9,3.8,13.8,5.8,20.8c0,0.1,0,0.2,0,0.3c-0.6,0-1.2,0-1.8,0c-24.6,0-49.2,0-73.9,0C220,479.5,219.4,479.5,218.8,479.6z"/>
	<path class="st1" d="M459.1,277.2c0-10.8,0-21.6,0-32.3c3.5-0.1,6.8,0.9,10.1,2.2c2.8,1.2,5.6,2.5,8.4,3.8c1.1,0.5,2.3,0.8,3.5,1.2
		c0,7,0,13.9,0,20.9c0,10.3,0,20.7,0,31c-0.2,0-0.4,0-0.6,0l0,0c-0.2-0.4-0.4-0.8-0.7-1.1c-1.6-1.8-3.3-3.6-5-5.3
		c-5.9-5.8-11.1-12.2-15.3-19.4C459.3,277.9,459.2,277.6,459.1,277.2z"/>
	<path class="st4" d="M481,252.1c-1.2-0.4-2.4-0.7-3.5-1.2c-2.8-1.2-5.5-2.6-8.4-3.8c-3.2-1.3-6.5-2.3-10.1-2.2
		c-1.6,0.1-3.2,0.1-4.9,0.2c1.1-1.1,2.4-1.4,3.7-1.7c4.8-1,9.5-0.8,14,1.7c2.9,1.6,5.8,3.1,9.1,4c4.6,1.2,9.2,1.7,13.8,0.6
		c0.2-0.1,0.5,0,0.8,0c-2.2,1.8-4.9,2.6-7.7,2.7C485.6,252.5,483.3,252.2,481,252.1z"/>
	<path class="st5" d="M480.4,303.9c0.2,0,0.4,0,0.6,0c0,0.3,0,0.6,0.1,0.9C480.8,304.5,480.6,304.2,480.4,303.9z"/>
	<path class="st5" d="M481.3,305c-0.1-0.1-0.2-0.2-0.3-0.2C481.1,304.9,481.2,305,481.3,305z"/>
	<path class="st4" d="M495.6,249.7c0.1-0.1,0.2-0.2,0.3-0.3C495.8,249.5,495.7,249.6,495.6,249.7z"/>
	<path class="st6" d="M257.2,306.6c-3.8-1.5-7.6-3-11.3-4.5c-5.1-2-10.2-4.1-15.3-6.1c-0.3-0.1-0.5-0.2-0.9-0.4
		c0-17.5,0-35.1,0-52.7c-2.8-0.6-5.5-1.1-8.1-1.7c-12.3-2.5-24.6-5-36.8-7.5c-4.2-0.9-8.5-1.7-12.7-2.5c-0.9-0.2-1.7-0.6-2.4-1.2
		c-9.6-7.5-19.2-15.1-28.8-22.6c-0.3-0.3-0.7-0.5-1.1-0.7c0-0.1-0.1-0.1-0.1-0.2c0,0.1,0,0.1-0.1,0.2c0.1,0,0.1,0,0.2,0
		c0,0.5-0.1,0.9,0,1.4c3.8,15.6,7.6,31.2,11.3,46.8c3.5,14.4,7,28.9,10.4,43.3c0.2,1,0.6,1.6,1.7,2c13.7,4.9,26,12.2,36.7,22.1
		c5.1,4.8,9.7,10,13.5,15.8c0.5,0.8,0.8,1.6,0.7,2.5c-0.2,8.5-0.2,17-0.5,25.6c-0.4,10.7-1,21.4-1.7,32.1
		c-0.7,9.6-1.6,19.1-2.6,28.6c-1.3,11.4-2.8,22.7-4.3,34c-0.5,3.8-1.2,7.5-1.9,11.5c-0.4-0.3-0.7-0.4-0.9-0.6
		c-19-19.9-35-42-47.7-66.5c-7.4-14.3-13.7-29.1-18.1-44.7c-0.3-0.9-0.5-1.8-0.7-2.8c0-0.1,0-0.2,0-0.5c7.3,6,14.5,11.9,22,17.9
		c0-0.7,0-1.1,0-1.4c0-17,0-33.9,0-50.9c0-0.9-0.2-1.5-0.8-2.1c-11.2-11.6-18.9-25.3-24.6-40.1c-5-12.8-8.4-25.9-10.6-39.5
		c-0.9-5.6-1.8-11.2-2-16.8c-0.3-6.8,0-13.6,0.4-20.4c0.3-6,0.9-12.1,1.6-18.1c1-9.6,2.8-19.1,5.1-28.5c3.5-14.5,8.4-28.5,15.2-41.9
		c11.9-23.4,28.4-42.7,50.3-57.3c12.7-8.4,26.3-14.8,41.1-18.4c1.1-0.3,2.3-0.5,3.4-0.7c0.1,0,0.2,0,0.4,0.1c0.5,2.3,1.1,4.6,1.6,7
		c2.3,10.8,4.1,21.7,5.5,32.6c1.2,9.6,2.5,19.3,3.5,29c0.9,7.9,1.5,15.9,2.2,23.8c0.6,6.9,1.2,13.8,1.7,20.6
		c0.5,6.5,0.9,13,1.3,19.5c0.5,8,1,16,1.5,24c0.6,10.4,1.1,20.7,1.5,31.1c0.3,6.9,0.5,13.8,0.8,20.7c0,1,0.1,2,0.2,3c0,1,0,2,0,3
		C257.2,271.3,257.2,288.9,257.2,306.6z"/>
	<path class="st6" d="M265.3,121.4c0.4-4.1,0.7-8.1,1.1-12.2c0.6-5.9,1.3-11.7,2-17.6c0.9-7,1.7-14.1,2.8-21.1
		c1.2-7.8,2.7-15.5,4.1-23.2c0.5-2.7,1.2-5.4,1.8-8.1c4.6,0.8,8.8,2,13.1,3.5c17.4,5.9,32.9,15,46.7,27.1
		c14.5,12.6,25.9,27.6,34.7,44.6c7.5,14.5,12.8,29.8,16.6,45.7c0.1,0.3,0.1,0.6,0.1,0.9c-0.3,0.3-0.5,0.6-0.7,0.9
		c-1.6,2.6-3.1,5.3-4.8,7.8c-4.5,7-9.2,13.8-14.6,20.1c-2.5,2.9-5,5.9-7.6,8.7c-3,3.2-6.2,6.2-9.4,9.2c-2.2,2-4.5,4.1-6.9,5.9
		c-3.7,2.7-7.5,5.3-11.3,7.7c-4.5,2.9-9.4,5.2-14.4,7.2c-4.5,1.8-9.1,3.2-13.8,4.1c-2.9,0.5-5.8,1.4-8.9,0.8c-2.2-0.4-4.3-1-6.2-2.2
		c-4-2.4-6.7-6-9-9.9c-3.7-6.3-6-13.3-7.8-20.3c-1.1-4.2-1.9-8.4-2.7-12.6c-0.5-2.5-0.9-5-1.2-7.5c-0.4-2.7-0.6-5.5-1-8.2
		c-0.4-3.4-0.8-6.8-1.2-10.3c-0.3-2.6-0.4-5.3-0.6-7.9c-0.2-3.8-0.5-7.6-0.6-11.4c-0.2-4.6-0.2-9.3-0.3-13.9
		C265.4,126.6,265.4,124,265.3,121.4z"/>
	<path class="st7" d="M265.3,121.4c0,2.6,0.1,5.1,0.1,7.7c0.1,4.6,0.2,9.3,0.3,13.9c0.1,3.8,0.4,7.6,0.6,11.4
		c0.2,2.6,0.3,5.3,0.6,7.9c0.3,3.4,0.8,6.9,1.2,10.3c0.3,2.7,0.6,5.5,1,8.2c0.3,2.5,0.7,5,1.2,7.5c0.8,4.2,1.7,8.4,2.7,12.6
		c1.8,7.1,4.1,14,7.8,20.3c2.3,3.9,5,7.5,9,9.9c1.9,1.1,4,1.8,6.2,2.2c3.1,0.5,6-0.3,8.9-0.8c4.7-0.9,9.3-2.3,13.8-4.1
		c5-2,9.9-4.3,14.4-7.2c3.8-2.5,7.6-5,11.3-7.7c2.4-1.8,4.7-3.8,6.9-5.9c3.2-3,6.4-6,9.4-9.2c2.7-2.8,5.1-5.8,7.6-8.7
		c5.4-6.3,10.1-13.1,14.6-20.1c1.7-2.6,3.2-5.2,4.8-7.8c0.2-0.3,0.5-0.6,0.7-0.9c0.6,2.6,1.3,5.2,1.8,7.9c1.1,6.5,2.1,13,2.9,19.5
		c0.7,5.3,0.9,10.6,1.3,15.9c0.2,3.2,0.3,6.4,0.4,9.6c-0.2,0.7-0.2,1.4-0.6,2c-3.8,5.9-7.7,11.8-11.3,17.8c-2.9,4.7-5,9.8-5.6,15.5
		c-0.5,4.1,0,8.1,1.4,12c1.3,3.7,3.4,7,5.5,10.3c0.3,0.5,0.5,1,0.7,1.5c-1.3,3.6-2.5,7.2-4,10.7c-4.2,10.4-9.5,20.2-16.4,29
		c-2.1,2.7-4.5,5.3-6.8,7.9c-0.5,0.6-1.1,1-1.1,1.9c0.1,4.4,0.1,8.8,0.1,13.1c-0.3,0.3-0.5,0.6-0.8,0.9c-2.2,2.3-4.5,4.5-6.5,6.9
		c-2.6,3-4.3,6.6-6,10.1c-2.3,4.6-4.4,9.2-6.9,13.6c-2.2,4.1-5.4,7.5-9.4,10c-7,4.4-13.9,8.9-20.9,13.3c-1.4,0.9-2.8,1.6-4.1,2.4
		c-0.3-4.7-0.6-9.4-0.8-14c-0.4-10.1-0.6-20.2-0.9-30.2c-0.1-2.6,0-5.2-0.1-7.9c0-1.1,0.3-1.9,0.8-2.8c4.5-6.9,10-12.9,16.2-18.2
		c10.1-8.7,21.5-15.2,34.1-19.7c0.9-0.3,1.2-0.8,1.4-1.7c4.7-19.4,9.4-38.8,14.1-58.3c2.6-10.9,5.3-21.8,7.9-32.7
		c0-0.2,0-0.4,0.1-0.9c-0.6,0.4-0.9,0.7-1.3,1c-9.7,7.6-19.3,15.2-29,22.8c-0.6,0.4-1.3,0.8-2,0.9c-9.5,2-19,3.9-28.6,5.8
		c-9.6,1.9-19.2,3.9-28.9,5.8c-0.1,0-0.2,0.1-0.4,0.2c0,17.5,0,35,0,52.6c-1.1,0.4-2,0.8-3,1.2c-7.8,3.1-15.6,6.3-23.4,9.4
		c-0.4,0.2-0.9,0.2-1.3,0.4c0-17.7,0-35.3,0-53c0-1,0-2,0-3c0.1-1.5,0.2-3.1,0.3-4.6c0.3-7.5,0.6-15.1,0.9-22.6
		c0.4-8.8,0.8-17.5,1.3-26.3c0.4-6.7,0.7-13.5,1.2-20.2c0.5-8,1.1-16.1,1.7-24.1c0.4-5.7,0.8-11.5,1.3-17.2
		c0.4-4.6,0.8-9.1,1.2-13.7C265.2,121.7,265.3,121.6,265.3,121.4z"/>
	<path class="st8" d="M302.2,392.9c1.4-0.8,2.8-1.6,4.1-2.4c7-4.4,13.9-8.9,20.9-13.3c4-2.5,7.2-5.9,9.4-10
		c2.4-4.5,4.6-9.1,6.9-13.6c1.7-3.5,3.4-7.1,6-10.1c2.1-2.4,4.4-4.6,6.5-6.9c0.3-0.3,0.5-0.6,0.8-0.9c1.5-1.3,3-2.7,4.5-4
		c6-5.6,12.2-11.2,18.1-16.9c4.1-3.9,7.7-8.2,10.7-13.1c2.8-4.6,3.4-9.5,2.3-14.7c-1.2-5.2-4-9.5-7-13.8c-0.1-0.1-0.2-0.2-0.4-0.2
		c-0.2-0.5-0.4-1-0.7-1.5c-2.1-3.3-4.2-6.6-5.5-10.3c-1.4-3.9-1.9-7.8-1.4-12c0.6-5.6,2.7-10.7,5.6-15.5c3.6-6,7.6-11.9,11.3-17.8
		c0.4-0.6,0.4-1.3,0.6-2c0.1,0.2,0.2,0.3,0.3,0.5c1.9-2.6,3.7-5.2,5.6-7.8c5.3-7.2,10.7-14.2,16.8-20.7c3.4-3.7,7-7.1,11.1-10
		c1.2-0.8,2.5-1.4,3.8-2l0.1,0.1c-0.7,0.8-1.5,1.6-2.2,2.4c-4.7,5.1-8.4,10.8-12,16.7c-3.7,6.1-7.2,12.4-11.6,18
		c-2.9,3.8-6.2,7.3-9.3,11c-2.6,3.1-5.2,6.2-7.2,9.7c-3.9,6.9-4.2,14.2-2.1,21.6c1.4,4.9,3.8,9.4,6.5,13.7c2.7,4.3,5.6,8.5,8.3,12.8
		c2.6,4.2,4.7,8.6,5.7,13.6c0.9,4.5,0.3,8.9-1.3,13.2c-0.7,1.8-2.2,2.8-3.9,3.6c-1.1,0.5-2.3,0.9-3.4,1.3c-0.9,0.4-1.8,0.8-2.7,1.3
		c-2,1.1-3.1,2.9-3,5.2c0.1,3.9,0.3,7.7,0.4,11.6c0.1,4.7,0.3,9.5,0.4,14.2c0.1,3.8-4.7,8-9.5,6.2c-2.9-1.1-5.4-3-7.8-4.9
		c-1.6-1.3-3.2-2.5-4.7-3.8c-2.4-2.1-4.9-2.3-7.8-1.2c-4.7,1.8-8.6,4.8-12,8.4c-3.5,3.8-6.4,8.1-9.1,12.4c-2.7,4.4-5.3,8.9-7.9,13.4
		c-0.8,1.4-1.3,2.9-1.8,4.5c-0.1,0.3,0,0.8,0,1.1c0.4,0,0.9,0.1,1.2-0.1c3.1-1.3,6.1-2.8,9.3-4c4.4-1.7,8.9-2.9,13.6-3.1
		c4.7-0.2,9,1.1,12.9,3.6c2.5,1.6,5,3.3,7.4,5.2c3.9,3.1,8.3,4.2,13.1,3.9c4.1-0.3,7.9-1.7,11.3-3.9c2.4-1.6,4.6-3.4,6.8-5.2
		c2.8-2.4,5.6-4.8,8.3-7.2c4-3.6,7.8-7.5,10.4-12.3c1.7-3.1,2.1-6.2,1.5-9.6c-0.4-2.1-0.8-4.2-1-6.3c-0.3-2.6,0.3-5,1.8-7.1
		c1.5-2,3.4-2.3,5.3-0.5c1.1,1,2,2.3,3,3.4c0.5,0.5,1,0.9,1.6,1.5c1.2-1.7,1.8-3.4,2.4-5.1c0.7-2.3,1.4-4.6,2.1-6.9
		c0.7-2.2,2.7-3.6,5.2-2.7c0.8,0.2,1.6,0.4,2.3,0.7c1.4,0.5,1.7,0.8,1.6,2.2c-0.1,1.3-0.2,2.7-0.6,4c-1.2,3.7-2.4,7.5-4.3,10.9
		c-1.5,2.7-3.7,4.9-5.7,7.2c-5.4,6.2-10.7,12.4-16.2,18.6c-4.6,5.1-9.3,10.2-14.4,14.9c-2.5,2.3-4.6,5-6.9,7.4
		c-1.1,1.2-2.3,2.3-3.6,3.3c-3.3,2.6-6.9,3-10.8,1.8c-3.1-1-6-2.5-8.8-4.1c-6-3.4-12-6.9-17.9-10.3c-1.8-1.1-3.7-2.1-6-1.7
		c-2.3,0.5-4.5,0.9-6.7,1.6c-5.6,1.8-10.9,4.3-16.1,6.8c-11.4,5.6-22.4,11.8-33.3,18.2c-0.4,0.3-0.8,0.6-1.5,1
		c2.8-0.2,5.2-0.3,7.6-0.6c3.2-0.3,6.4-0.7,9.6-1.1c5.1-0.7,10.2-1.4,15.3-1.2c5.7,0.1,11.3,0.7,17,1.6c12.6,2.1,24.8,5.5,37.2,8.5
		c7.5,1.8,15,3.4,22.6,4.4c6,0.8,12.1,0.9,18.1,0.6c2.3-0.1,4.5-0.5,6.7-0.8c0.2,0,0.4,0,0.7,0c0,5.9,0,11.8,0,17.8
		c-25.8,0-51.5,0-77.4,0c4.2-6.8,8.3-13.4,12-20.4c-5.6-0.4-11.1-0.7-16.6-1c-2.8-0.2-5.5-0.4-8.3-0.6c-3.2-0.2-6.3-0.4-9.5-0.6
		c-4.5-0.2-8.9-0.5-13.4-0.6c-6.7,0-13.5,0.1-20.2,0.2c-3.9,0.3-7.8,0.5-11.7,0.8c-3.4,0.3-6.8,0.6-10.2,1
		c-4.5,0.5-9.1,1.1-13.6,1.7c-0.5,0.1-0.9,0.1-1.5-0.1c1.7-1.1,3.3-2.2,5-3.3c9.8-6.3,19.6-12.6,29.3-18.9
		C301.5,393.6,301.8,393.2,302.2,392.9z"/>
	<path class="st9" d="M97.5,235.8c-6.5,0.8-13,1.6-19.7,2.4c0-53.9,0-107.9,0-161.9c18.4,0,36.9,0,55.6,0c-0.5,0.7-0.9,1.3-1.4,1.9
		c-9.4,12.9-16.5,27-21.8,42.1c-3.5,10.1-6.2,20.4-8.1,30.9c-1.1,6.1-2.2,12.2-3,18.3c-0.8,5.9-1.3,11.8-1.9,17.7
		c-0.6,6.3-1,12.6-0.9,18.9c0,5-0.1,10,0.2,14.9C96.5,225.8,97,230.7,97.5,235.8z"/>
	<path class="st9" d="M132.7,310.8c-2.2,1.5-4.3,2.9-6.5,4.4c-1.8,1.3-3.6,2.5-5.5,3.8c-7.1-4.3-14.1-8.7-21.5-13.2
		c3.3,14.5,7.6,28.3,12.4,42.2c-2.6-0.4-4.5,1.1-6.5,2c-8.9,4.1-17.8,8.4-26.6,12.6c-0.2,0.1-0.4,0.2-0.8,0.4c0-39.6,0-79.2,0-118.8
		c6.9-0.5,13.7-0.9,20.8-1.4c0.3,1.5,0.6,2.9,0.9,4.4c2.4,12.4,6.3,24.3,12.2,35.4c3.6,6.6,7.8,12.8,13,18.3
		c4.1,4.3,8.5,8.2,13.7,11.1c0.6,0.3,0.7,0.7,0.8,1.3c0.2,3.9,0.4,7.7,0.7,11.6c0.1,1.9,0.3,3.8,0.4,6.1c-5-3.1-9.8-6-14.7-9
		c0.7-1.1,1.4-2.1,2-3c1.8-2.7,3.5-5.4,5.3-8.1c0-0.1,0.1-0.2,0.1-0.3C132.9,310.7,132.8,310.7,132.7,310.8z"/>
	<path class="st9" d="M412.6,115.9c1.8,0,3.3-0.4,4.7-1.5c6.2-4.7,12.4-9.4,18.6-14c0.3-0.2,0.7-0.5,1.1-0.8c0,13.8,0,27.6,0,41.3
		c-8.7,0-17.4,0-26.3,0c-5.5-23.3-14.6-45.1-29.3-64.6c18.7,0,37,0,55.5,0c0,0.3,0.1,0.7,0.1,1.1c0,6,0,11.9,0,17.9
		c0,0.8-0.3,1.4-0.9,1.9c-7.6,5.9-15.2,11.8-22.8,17.8C413.2,115.2,412.9,115.5,412.6,115.9c-0.1,0-0.2,0.1-0.4,0.1
		c0,0,0.1,0.1,0.1,0.1C412.4,116,412.5,115.9,412.6,115.9z M410.6,82c1.4,1.7,2.3,4.1,5.3,3c-0.3-0.8-0.6-1.7-1-2.6
		c-0.1-0.2-0.5-0.4-0.7-0.4C413,82,411.8,82,410.6,82z"/>
	<path class="st10" d="M303.8,412.6c6.7-0.1,13.5-0.3,20.2-0.2c4.5,0,8.9,0.3,13.4,0.6c3.2,0.2,6.3,0.4,9.5,0.6
		c2.8,0.2,5.5,0.4,8.3,0.6c-1.4,2.4-2.7,4.8-4.1,7.2c-10.6,17.4-22.8,33.6-36.8,48.4c-0.8,0.9-1.7,1.8-2.5,2.6c0,0-0.1,0-0.3,0.1
		C308,452.7,305.5,432.7,303.8,412.6z"/>
	<path class="st9" d="M92.5,376.3c-2.4,1.4-4.9,2.8-7.3,4.2c-2.4,1.4-4.8,2.9-7.4,4.4c0-5.2,0-10.3,0-15.5
		c12-4.9,24.1-9.9,36.1-14.8c4.5,10.8,9,21.4,13.5,32.1c-16.5,8.4-33,16.9-49.7,25.4c0-3.7,0-7.1,0-10.5c0-1.3,0.1-2.5,0-3.8
		c-0.2-1.7,0.5-3.1,1.5-4.4c4.4-5.4,8.7-10.9,13-16.3C92.3,376.9,92.4,376.6,92.5,376.3c0.1,0,0.1-0.1,0.2-0.2
		C92.6,376.1,92.5,376.2,92.5,376.3z"/>
	<path class="st11" d="M123.2,435.4c1.9-1.1,3.9-2.3,5.8-3.4c2.3-1.3,4.7-2.6,6.9-4c1.2-0.7,2.3-0.8,3.6-0.7
		c2.5,0.2,4.9,0.4,7.4,0.5c3.1,0.2,3.1,0.1,4.8,2.7c1,1.6,2.1,3.2,3.1,4.8c0,0,0,0.1,0,0.3c-10.5,0-21,0-31.5,0
		C123.2,435.5,123.2,435.5,123.2,435.4z"/>
	<path class="st12" d="M98.8,435.4c9.5-4.9,18.9-9.7,28.4-14.6c0.1,0.1,0.2,0.2,0.2,0.2c-0.5,0.5-1,1-1.5,1.5c-3.1,3-6.1,6-9.2,8.9
		c-1.3,1.2-2.5,2.5-3.8,3.6c-0.3,0.3-0.8,0.5-1.2,0.5c-4.3,0-8.6,0-12.8,0C98.8,435.6,98.8,435.5,98.8,435.4z"/>
	<path class="st5" d="M459.1,277.2c0.1,0.3,0.2,0.7,0.4,1c4.2,7.2,9.4,13.5,15.3,19.4c1.7,1.7,3.4,3.5,5,5.3
		c0.3,0.3,0.4,0.7,0.7,1.1c-0.3-0.1-0.7-0.1-0.9-0.3c-3.7-3.1-7.6-6-10.9-9.6c-5.2-5.8-9.3-12.2-12.5-19.3c-0.1-0.3-0.1-0.6-0.2-0.9
		l0,0c0.8,0.9,1.6,1.8,2.4,2.7C458.5,276.9,458.8,277,459.1,277.2z"/>
	<path class="st13" d="M77.7,430.3c1.7-0.9,3.4-1.8,5.2-2.8c0.1,0.1,0.1,0.1,0.2,0.2c-0.9,1.5-1.7,3-2.6,4.5c-0.5,1-1.1,1.9-1.7,2.8
		c-0.2,0.3-0.6,0.5-1.1,0.9C77.7,433.9,77.7,432.2,77.7,430.3z"/>
	<path class="st8" d="M432.6,174c0.1-0.1,0.2-0.2,0.3-0.2c0,0,0.1,0.1,0.1,0.2C432.9,174,432.8,174,432.6,174L432.6,174z"/>
	<path class="st14" d="M480.4,161.4c0.1,0,0.3,0.1,0.4,0.1C480.7,161.5,480.6,161.4,480.4,161.4z"/>
	<path class="st5" d="M455.9,273.9c-0.1,0-0.2-0.1-0.2-0.1C455.8,273.9,455.8,273.9,455.9,273.9L455.9,273.9z"/>
	<path class="st0" d="M139.8,206.7c-0.1,0-0.1,0-0.2,0c0-0.1,0-0.1,0.1-0.2C139.6,206.6,139.7,206.6,139.8,206.7L139.8,206.7z"/>
	<path class="st15" d="M385.1,273c0.1,0.1,0.3,0.1,0.4,0.2c3,4.3,5.8,8.6,7,13.8c1.2,5.2,0.5,10.1-2.3,14.7
		c-2.9,4.9-6.6,9.2-10.7,13.1c-5.9,5.7-12.1,11.3-18.1,16.9c-1.5,1.4-3,2.7-4.5,4c0-4.4,0-8.8-0.1-13.1c0-0.9,0.6-1.3,1.1-1.9
		c2.3-2.6,4.7-5.2,6.8-7.9c6.9-8.9,12.2-18.7,16.4-29C382.5,280.2,383.8,276.6,385.1,273z"/>
	<path class="st0" d="M132.7,310.8c0.1,0,0.2-0.1,0.3-0.1c0,0.1-0.1,0.2-0.1,0.3C132.8,310.9,132.7,310.8,132.7,310.8z"/>
	<path class="st16" d="M410.6,82c1.2,0,2.4,0,3.5,0c0.2,0,0.6,0.2,0.7,0.4c0.4,0.9,0.7,1.7,1,2.6C412.9,86.1,412,83.8,410.6,82z"/>
	<path class="st0" d="M412.6,115.9c-0.1,0.1-0.2,0.2-0.3,0.2c0,0-0.1-0.1-0.1-0.1C412.3,115.9,412.5,115.9,412.6,115.9
		C412.6,115.9,412.6,115.9,412.6,115.9z"/>
	<path class="st0" d="M92.5,376.3c0.1-0.1,0.1-0.1,0.2-0.2C92.6,376.1,92.6,376.2,92.5,376.3L92.5,376.3z"/>
</g>
</svg>
