<?xml version="1.0" encoding="utf-8"?>
<!-- Generator: Adobe Illustrator 22.1.0, SVG Export Plug-In . SVG Version: 6.00 Build 0)  -->
<svg version="1.1" id="Layer_2_1_" xmlns="http://www.w3.org/2000/svg" xmlns:xlink="http://www.w3.org/1999/xlink" x="0px" y="0px"
	 viewBox="0 0 512 512" style="enable-background:new 0 0 512 512;" xml:space="preserve">
<style type="text/css">
	.st0{fill:#FFFFFF;stroke:#000000;stroke-miterlimit:10;}
	.st1{stroke:#000000;stroke-miterlimit:10;}
	.st2{fill:#8F707A;}
	.st3{fill:#FFFFFF;stroke:#FFFFFF;stroke-miterlimit:10;}
	.st4{fill:#FFFFFF;}
	.st5{fill:#FFFFFF;stroke:#000000;stroke-width:11;stroke-miterlimit:10;}
	.st6{fill:none;stroke:#000000;stroke-width:5;stroke-miterlimit:10;}
	.st7{fill:#8F707A;stroke:#000000;stroke-width:7;stroke-miterlimit:10;}
</style>
<g>
	<path class="st0" d="M264.2,29.5c0,0,29.4-41.2,65.5-11.8c0,0,92.4-56.7,130.3,48.3c0,0,26,10.5,22.3,47.1c0,0,48.3,39.1,5.9,81.1
		c0,0,4.6,14.7-5.5,41.6l-0.4,239.9H30.2V29.5H264.2z"/>
	<path class="st1" d="M48.7,48.4h216c0,0,31.1-44.5,62.2-17.2c0,0,86.6-50.8,123.9,44.5c0,0,26.9,6.3,21.8,43.3
		c0,0,40.8,31.9,3.8,72.3c0,0,8.4,23.1-10.1,42.9l-2.9,7.6l-0.4,216H48.7V48.4z"/>
	<path class="st2" d="M66.3,66.1v373.5h379.4V237.7c0,0,26-16.6,18.9-50.6c0,0,35.7-34.9-6.3-66.8c0,0,5-28.6-20.6-40.8
		c0,0-21.4-84.9-110.1-33.2c0,0-29.5-35.3-55.1,14.3c0,0-18.4-2.5-24.7,13l-25.2,17.2l-2.9-13l2.1-11.8L66.3,66.1L66.3,66.1z"/>
	<path class="st3" d="M233.1,37.3c0,0-21,11.6-25.2,48.8l7.1,8.1c0,0,13-48.8,49.6-48.3l-11.8-11.6L233.1,37.3z"/>
	<path class="st4" d="M469.5,232.8c0,0-20.8,12.5-30.5-3.4c0,0-3.4-3.8-2.1-5c0,0-11.3,1.7-5.5,21c0,0,7.1,12.6,34.9,7.1l9.2-11.3
		L469.5,232.8z"/>
	<g>
		<path class="st4" d="M88.2,340c0,0,0.8-1.1,2.3-3.2s3.7-5.2,6.5-9.1c5.6-7.8,13.6-19.1,23.3-32.4c4.9-6.7,10.1-13.9,15.7-21.6
			c5.6-7.6,11.5-15.7,17.6-24c6.1-8.3,12.5-16.9,19-25.6c6.5-8.7,13.1-17.5,19.7-26.4c6.6-8.8,13.2-17.6,19.8-26.3
			c6.5-8.7,13-17.2,19.2-25.4c6.3-8.2,12.3-16.2,18.1-23.7s11.2-14.6,16.3-21.2c5-6.6,9.7-12.5,13.8-17.8c4.1-5.3,7.7-9.9,10.7-13.7
			c3-3.8,5.3-6.8,6.9-8.8s2.5-3.1,2.5-3.1s-0.8,1.1-2.3,3.2c-1.5,2.1-3.7,5.2-6.5,9.1s-6.2,8.7-10.1,14.1
			c-3.9,5.5-8.3,11.6-13.2,18.3c-4.9,6.7-10.1,13.9-15.7,21.6c-5.6,7.6-11.5,15.7-17.6,24c-6.2,8.3-12.5,16.9-19,25.6
			c-6.5,8.7-13.1,17.5-19.7,26.4c-6.6,8.8-13.2,17.6-19.8,26.3c-6.5,8.6-13,17.2-19.2,25.4c-6.3,8.2-12.3,16.2-18.1,23.7
			s-11.2,14.6-16.3,21.2c-10.1,13.1-18.6,23.9-24.5,31.5c-3,3.8-5.3,6.8-6.9,8.8C89,339,88.2,340,88.2,340z"/>
	</g>
	<g>
		<path class="st4" d="M365.5,53.1c0,0-0.4,0.5-1.3,1.6c-0.8,1-2.1,2.5-3.6,4.4c-3.1,3.8-7.6,9.2-13.1,15.6
			c-2.7,3.2-5.7,6.7-8.9,10.3c-3.2,3.7-6.5,7.5-10,11.5c-3.5,3.9-7.1,8.1-10.8,12.2c-3.7,4.1-7.4,8.3-11.2,12.5
			c-3.8,4.2-7.6,8.3-11.3,12.4c-3.7,4.1-7.4,8.1-11,12s-7.1,7.6-10.4,11.1s-6.5,6.8-9.4,9.9c-5.8,6.1-10.8,11.1-14.2,14.6
			c-1.7,1.7-3.1,3.1-4,4s-1.4,1.4-1.4,1.4s0.4-0.5,1.3-1.6c0.8-1,2.1-2.5,3.6-4.4c3.1-3.8,7.6-9.2,13.1-15.6
			c2.7-3.2,5.7-6.7,8.9-10.3c3.2-3.7,6.5-7.5,10-11.5c3.5-3.9,7.1-8.1,10.8-12.2c3.7-4.1,7.4-8.3,11.2-12.5
			c3.8-4.2,7.6-8.3,11.3-12.4c3.7-4.1,7.5-8.1,11-12c3.6-3.9,7.1-7.6,10.4-11.1s6.5-6.8,9.4-9.9c5.8-6.1,10.8-11.1,14.2-14.6
			c1.7-1.7,3.1-3.1,4-4C365,53.6,365.5,53.1,365.5,53.1z"/>
	</g>
	<g>
		<path class="st4" d="M422.2,130.8c0,0-1.2,1.4-3.3,3.8c-2.1,2.4-5.1,5.8-8.7,9.8s-7.9,8.7-12.4,13.7c-2.3,2.5-4.7,5.1-7.1,7.7
			c-2.4,2.6-4.9,5.3-7.3,7.9c-2.5,2.6-5,5.3-7.4,7.9c-2.5,2.6-4.9,5.1-7.2,7.6c-4.7,4.9-9.1,9.4-12.9,13.3c-3.8,3.9-7,7.1-9.2,9.3
			c-2.3,2.2-3.5,3.5-3.5,3.5s1.2-1.4,3.3-3.8c2.1-2.4,5-5.8,8.7-9.8c3.6-4,7.9-8.7,12.4-13.7c2.3-2.5,4.7-5.1,7.1-7.7
			c2.4-2.6,4.9-5.3,7.3-7.9c2.5-2.6,5-5.3,7.4-7.9c2.5-2.6,4.9-5.1,7.2-7.6c4.7-4.9,9.1-9.4,12.9-13.3c3.8-3.9,7-7.1,9.2-9.3
			C420.9,132.1,422.2,130.8,422.2,130.8z"/>
	</g>
	<g>
		<path class="st4" d="M452.6,145.1c0,0-0.5,0.5-1.3,1.3c-0.9,0.9-2.1,2.1-3.7,3.7c-3.2,3.2-7.9,7.7-13.5,13.1
			c-2.8,2.7-5.9,5.6-9.1,8.7c-3.3,3.1-6.7,6.3-10.3,9.6c-3.6,3.3-7.3,6.7-11.1,10.1c-3.8,3.4-7.6,6.9-11.5,10.4
			c-3.9,3.4-7.8,6.9-11.6,10.3c-3.8,3.4-7.6,6.7-11.3,9.9c-3.7,3.2-7.2,6.3-10.6,9.2s-6.6,5.6-9.6,8.1c-6,5-11,9.1-14.5,12
			c-1.8,1.4-3.2,2.5-4.1,3.3c-1,0.8-1.5,1.2-1.5,1.2s0.5-0.5,1.3-1.3c0.9-0.9,2.1-2.1,3.7-3.7c3.2-3.2,7.9-7.8,13.5-13.1
			c2.8-2.7,5.9-5.6,9.1-8.7c3.3-3.1,6.7-6.3,10.3-9.6c3.6-3.3,7.3-6.7,11.1-10.1c3.8-3.4,7.6-6.9,11.5-10.4
			c3.9-3.4,7.8-6.9,11.6-10.3c3.8-3.4,7.6-6.7,11.3-9.9c3.7-3.2,7.2-6.3,10.6-9.2s6.6-5.6,9.6-8.1c6-5,11-9.1,14.5-12
			c1.8-1.4,3.2-2.5,4.1-3.3C452.1,145.5,452.6,145.1,452.6,145.1z"/>
	</g>
	<g>
		<path class="st4" d="M436.5,203.1c0,0-0.5,0.5-1.5,1.3c-1,0.9-2.4,2.2-4.3,3.8c-3.7,3.2-9,7.9-15.4,13.4
			c-3.2,2.7-6.7,5.7-10.4,8.8c-3.7,3.1-7.6,6.4-11.7,9.8c-4.1,3.4-8.3,6.9-12.5,10.4c-4.3,3.5-8.6,7.1-13,10.7s-8.7,7.1-13,10.6
			s-8.6,6.9-12.7,10.2c-8.2,6.6-16,12.7-22.6,17.9c-6.6,5.2-12.3,9.5-16.2,12.5c-1.9,1.5-3.5,2.7-4.6,3.5s-1.6,1.2-1.6,1.2
			s0.5-0.5,1.5-1.3c1-0.9,2.4-2.2,4.3-3.8c3.7-3.2,9-7.9,15.4-13.4s13.9-11.9,22.1-18.7c4.1-3.4,8.2-6.9,12.5-10.4s8.6-7.1,13-10.7
			s8.7-7.1,13-10.6s8.6-6.9,12.7-10.2s8.1-6.5,11.9-9.5s7.4-5.8,10.7-8.4c6.6-5.2,12.3-9.5,16.2-12.5c1.9-1.5,3.5-2.7,4.6-3.5
			C435.9,203.5,436.5,203.1,436.5,203.1z"/>
	</g>
	<path class="st5" d="M256,74.5c72.5,0,103.6,70.6,103.6,70.6c13.9,27.3,0,75.2,0,75.2c-8.8,15.1-12.2,64.3-12.2,64.3
		c-2.1,4.6-7.6,6.7-7.6,6.7c-25.2,8-26.5,21-26.5,21c-4.2,9.2,0.8,17.2,0.8,17.2c10.5,0.8,13,10.5,13,10.5c18.9-7.1,24.4,0,24.4,0
		c32.4,23.5,30.7,40.3,30.7,40.3c5.5,24.4-29.8,50.8-29.8,50.8c-22.7,16-42.4,0-42.4,0l-24.8-25.6c-4.6-11.3,0-26,0-26h-9.5v5h-16.2
		v-6.7H256v-7.1v7.1h-3.6v6.7h-16.2v-5h-9.5c0,0,4.6,14.7,0,26L202,431.2c0,0-19.7,16-42.4,0c0,0-35.3-26.5-29.8-50.8
		c0,0-1.7-16.8,30.7-40.3c0,0,5.5-7.1,24.4,0c0,0,2.5-9.7,13-10.5c0,0,5-8,0.8-17.2c0,0-1.3-13-26.5-21c0,0-5.5-2.1-7.6-6.7
		c0,0-3.4-49.2-12.2-64.3c0,0-13.9-47.9,0-75.2C152.4,145.1,183.5,74.5,256,74.5L256,74.5z"/>
	<line class="st6" x1="231" y1="379.5" x2="231" y2="372"/>
	<line class="st6" x1="280.2" y1="379.5" x2="280.2" y2="372"/>
	<path class="st7" d="M187.3,215.3v34.9c0,0,6.7,23.5,37,26.1c0,0,17.6,0.8,17.2-24.4c0,0,3.8-11.2-10.5-17.2
		C231,234.6,203.7,227.9,187.3,215.3z"/>
	<path class="st7" d="M324.3,215.3v34.9c0,0-6.7,23.5-37,26c0,0-17.6,0.8-17.2-24.4c0,0-3.8-11.2,10.5-17.2
		C280.6,234.6,307.9,227.9,324.3,215.3z"/>
	<path class="st7" d="M258,322c3.6-4.6,19.7,0,19.7,0c-11.6-17.6-19.8-45.8-19.8-45.8h-2c0,0-8.2,28.1-19.7,45.8
		c0,0,16.1-4.6,19.7,0H258L258,322z"/>
	<path class="st6" d="M184.8,340c0,0,29,17.6,42,39.5"/>
	<path class="st6" d="M285.2,379.5c0,0,10.5-30.3,42-39.5"/>
	<path class="st6" d="M139,359.8c0,0,42.4,13.2,66.8,67.5"/>
	<path class="st6" d="M305.2,427.3c0,0,23.7-52.8,67.8-67.5"/>
</g>
</svg>
