<?xml version="1.0" encoding="utf-8"?>
<!-- Generator: Adobe Illustrator 22.1.0, SVG Export Plug-In . SVG Version: 6.00 Build 0)  -->
<svg version="1.1" id="Layer_2_1_" xmlns="http://www.w3.org/2000/svg" xmlns:xlink="http://www.w3.org/1999/xlink" x="0px" y="0px"
	 viewBox="0 0 511.9 512" style="enable-background:new 0 0 511.9 512;" xml:space="preserve">
<style type="text/css">
	.st0{fill:#FFFFFF;stroke:#000000;stroke-width:1.7693;stroke-miterlimit:10;}
	.st1{stroke:#000000;stroke-width:0.8847;stroke-miterlimit:10;}
	.st2{fill:#409192;}
	.st3{fill:none;stroke:#FF0000;stroke-width:0.8847;stroke-miterlimit:10;}
	.st4{fill:#FFFFFF;stroke:#FFFFFF;stroke-width:0.8847;stroke-miterlimit:10;}
</style>
<g>
	<rect x="30.9" y="32.8" class="st0" width="452.9" height="452.9"/>
	<rect x="51.7" y="51.8" class="st1" width="412.3" height="407"/>
	<rect x="65.4" y="64.6" class="st2" width="383.1" height="383.1"/>
	<path class="st3" d="M235,166.7"/>
	<path class="st1" d="M296.3,188.2"/>
	<path class="st1" d="M278.9,450.8c0,0-0.4-40.2,10.3-95.7c0,0-3.6,45.8,5.9,69.5c0,0,26.9-72.6,57.1-98.7c0,0-18.1-15.3-25.7-25.7
		l-1.3-1.4c7.1,5.1,32.1,19.3,32.1,19.3s43.5-9.2,73.9-51.3l-2.7,0.1c-34.9,0.5-64.3-8.1-64.3-8.1c40.8-0.5,82.4-8.9,82.4-8.9
		s39.2-31.4,44.1-102l0.7-15.6c0,0-58.1,48.4-90.9,59.3l0,0l39.1-29c48.3-42,58.1-68.8,58.1-68.8L427,17.3c0,0,5.3,48.5-66,126.3
		c-59.1,64.5-73.4,12-73.4,12c-0.8-4.6-1.4-12.5-1.3-19.1c0,0,8.6-82.7,47.5-126.3c0,0-110.2,87.8-144.2,133.8
		c0,0,33.2-9.2,45.5-3.6c0,0,5.6,2.8,7.5,10.4c0,0,2.9,8.6-1.7,15.6c0,0-3.9,8.6-11.5,14.7c0,0-10.1,5.4-13.9,5
		c-28.4-2.6-63.7-39-63.7-39c-72-76.9-67-131.5-67-131.5L14.4,92.5c0,0,9.8,26.8,58.1,68.8l39.1,29l0,0
		c-32.8-10.9-90.9-59.3-90.9-59.3l0.7,15.6c4.7,70.5,44.1,102,44.1,102s41.6,8.4,82.4,8.9c0,0-29.4,8.5-64.3,8.1l-2.7-0.1
		c30.4,42.2,73.9,51.3,73.9,51.3s25-14.2,32.1-19.3l-1.3,1.4c-7.5,10.4-25.7,25.7-25.7,25.7c30.2,26,57.1,98.7,57.1,98.7
		c9.4-23.8,5.9-69.5,5.9-69.5c10.7,55.5,10.7,97.4,10.7,97.4L278.9,450.8L278.9,450.8z"/>
	<path class="st1" d="M155,328.9"/>
	<path class="st1" d="M19.8,106.3"/>
	<path class="st4" d="M324.9,182c0,0,86.4-42.6,107.2-150.1l58.4,64.6c0,0-46,77.5-164.5,119.9c0,0,90.7-7.1,158.8-71.7
		c0,0,0.8,63.4-43.4,98c0,0-52.6,14.3-118.6,5.8c0,0,43.8,20.4,95.6,23c0,0-27.8,32.3-59.7,38c0,0-27-12-52.2-34.1
		c0,0,16.8,32.7,37.2,50c0,0-37.2,42.9-48.2,82.3c0,0-5.8-27.8,0-92c0,0-22.5,23-22.5,149.1h-34.5c0-126-22.5-149.1-22.5-149.1
		c5.8,64.1,0,92,0,92c-11-39.3-48.2-82.3-48.2-82.3c20.4-17.3,37.2-50,37.2-50c-25.2,22.1-52.2,34.1-52.2,34.1
		c-31.9-5.8-59.7-38-59.7-38c51.8-2.6,95.6-23,95.6-23c-65.9,8.4-119.9-7-119.9-7C24.2,207,26.9,142,26.9,142
		c68.1,64.6,158.4,74.3,158.4,74.3C66.8,173.9,20.7,94.6,20.7,94.6L79.1,32c20.8,107.4,109.2,153,109.2,153s34.2,20.2,51-2.4
		c0,0,25.8-27.7-1.2-49c0,0-18.1-6.1-33,2.1c0,0,66.8-69.3,96.9-86.5c0,0-21.8,49.7-24.1,92.2c0,0-1,32,18,41.3
		C296,182.6,311.6,190.3,324.9,182z"/>
</g>
</svg>
